<svg aria-hidden="true" style="position: absolute; width: 0; height: 0; overflow: hidden;" version="1.1" xmlns="http://www.w3.org/2000/svg" xmlns:xlink="http://www.w3.org/1999/xlink">
<defs>
<symbol id="icon-close" viewBox="0 0 32 32">
<path d="M4.94 4.020l-0.92 0.92 11.060 11.060-11.060 11.060 0.92 0.92 11.060-11.060 11.060 11.060 0.92-0.92-11.060-11.060 11.060-11.060-0.92-0.92-11.060 11.060z"></path>
</symbol>
<symbol id="icon-star" viewBox="0 0 32 32">
<path stroke-linejoin="round" stroke-linecap="round" stroke-miterlimit="4" stroke-width="2.4" d="M16 2.667l4.12 8.347 9.213 1.347-6.667 6.493 1.573 9.173-8.24-4.333-8.24 4.333 1.573-9.173-6.667-6.493 9.213-1.347 4.12-8.347z"></path>
</symbol>
<symbol id="icon-Menu-1" viewBox="0 0 32 32">
<path stroke-linejoin="round" stroke-linecap="round" stroke-miterlimit="4" stroke-width="2" d="M13.333 4h-9.333v9.333h9.333v-9.333z"></path>
<path stroke-linejoin="round" stroke-linecap="round" stroke-miterlimit="4" stroke-width="2" d="M28 4h-9.333v9.333h9.333v-9.333z"></path>
<path stroke-linejoin="round" stroke-linecap="round" stroke-miterlimit="4" stroke-width="2" d="M28 18.667h-9.333v9.333h9.333v-9.333z"></path>
<path stroke-linejoin="round" stroke-linecap="round" stroke-miterlimit="4" stroke-width="2" d="M13.333 18.667h-9.333v9.333h9.333v-9.333z"></path>
</symbol>
<symbol id="icon-Menu-4" viewBox="0 0 32 32">
<path stroke-linejoin="round" stroke-linecap="round" stroke-miterlimit="4" stroke-width="2" d="M16 20c2.209 0 4-1.791 4-4s-1.791-4-4-4c-2.209 0-4 1.791-4 4s1.791 4 4 4z"></path>
<path stroke-linejoin="round" stroke-linecap="round" stroke-miterlimit="4" stroke-width="2" d="M25.867 20c-0.177 0.402-0.23 0.848-0.152 1.281s0.285 0.832 0.592 1.146l0.080 0.080c0.248 0.248 0.445 0.542 0.579 0.865s0.203 0.671 0.203 1.021-0.069 0.697-0.203 1.021c-0.134 0.324-0.331 0.618-0.579 0.865s-0.542 0.445-0.865 0.579c-0.324 0.134-0.671 0.203-1.021 0.203s-0.697-0.069-1.021-0.203c-0.324-0.134-0.618-0.331-0.865-0.579l-0.080-0.080c-0.314-0.307-0.713-0.514-1.146-0.592s-0.879-0.025-1.281 0.152c-0.394 0.169-0.731 0.45-0.968 0.807s-0.364 0.777-0.366 1.206v0.227c0 0.707-0.281 1.385-0.781 1.886s-1.178 0.781-1.886 0.781c-0.707 0-1.385-0.281-1.886-0.781s-0.781-1.178-0.781-1.886v-0.12c-0.010-0.441-0.153-0.869-0.41-1.228s-0.616-0.633-1.030-0.785c-0.402-0.177-0.848-0.23-1.281-0.152s-0.832 0.285-1.146 0.592l-0.080 0.080c-0.248 0.248-0.542 0.445-0.866 0.579s-0.671 0.203-1.021 0.203-0.697-0.069-1.021-0.203c-0.324-0.134-0.618-0.331-0.865-0.579s-0.445-0.542-0.579-0.865-0.203-0.671-0.203-1.021c0-0.35 0.069-0.697 0.203-1.021s0.331-0.618 0.579-0.865l0.080-0.080c0.307-0.314 0.514-0.713 0.592-1.146s0.026-0.879-0.152-1.281c-0.169-0.394-0.45-0.731-0.807-0.968s-0.777-0.364-1.206-0.366h-0.227c-0.707 0-1.386-0.281-1.886-0.781s-0.781-1.178-0.781-1.886c0-0.707 0.281-1.385 0.781-1.886s1.178-0.781 1.886-0.781h0.12c0.441-0.010 0.869-0.153 1.228-0.41s0.633-0.616 0.785-1.030c0.178-0.402 0.23-0.848 0.152-1.281s-0.285-0.832-0.592-1.146l-0.080-0.080c-0.248-0.248-0.445-0.542-0.579-0.866s-0.203-0.671-0.203-1.021c0-0.35 0.069-0.697 0.203-1.021s0.331-0.618 0.579-0.865c0.248-0.248 0.542-0.445 0.865-0.579s0.671-0.203 1.021-0.203c0.35 0 0.697 0.069 1.021 0.203s0.618 0.331 0.866 0.579l0.080 0.080c0.314 0.307 0.713 0.514 1.146 0.592s0.879 0.026 1.281-0.152h0.107c0.394-0.169 0.731-0.45 0.968-0.807s0.364-0.777 0.366-1.206v-0.227c0-0.707 0.281-1.386 0.781-1.886s1.178-0.781 1.886-0.781c0.707 0 1.385 0.281 1.886 0.781s0.781 1.178 0.781 1.886v0.12c0.002 0.429 0.129 0.848 0.366 1.206s0.573 0.638 0.968 0.807c0.402 0.178 0.848 0.23 1.281 0.152s0.832-0.285 1.146-0.592l0.080-0.080c0.248-0.248 0.542-0.445 0.865-0.579s0.671-0.203 1.021-0.203c0.35 0 0.697 0.069 1.021 0.203s0.618 0.331 0.865 0.579c0.248 0.248 0.445 0.542 0.579 0.865s0.203 0.671 0.203 1.021-0.069 0.697-0.203 1.021c-0.134 0.324-0.331 0.618-0.579 0.866l-0.080 0.080c-0.307 0.314-0.514 0.713-0.592 1.146s-0.025 0.879 0.152 1.281v0.107c0.169 0.394 0.45 0.731 0.807 0.968s0.777 0.364 1.206 0.366h0.227c0.707 0 1.385 0.281 1.886 0.781s0.781 1.178 0.781 1.886c0 0.707-0.281 1.385-0.781 1.886s-1.178 0.781-1.886 0.781h-0.12c-0.429 0.002-0.848 0.129-1.206 0.366s-0.638 0.573-0.807 0.968v0z"></path>
</symbol>
<symbol id="icon-Menu-3" viewBox="0 0 32 32">
<path stroke-linejoin="round" stroke-linecap="round" stroke-miterlimit="4" stroke-width="2" d="M12 29.333c0.736 0 1.333-0.597 1.333-1.333s-0.597-1.333-1.333-1.333c-0.736 0-1.333 0.597-1.333 1.333s0.597 1.333 1.333 1.333z"></path>
<path stroke-linejoin="round" stroke-linecap="round" stroke-miterlimit="4" stroke-width="2" d="M26.667 29.333c0.736 0 1.333-0.597 1.333-1.333s-0.597-1.333-1.333-1.333c-0.736 0-1.333 0.597-1.333 1.333s0.597 1.333 1.333 1.333z"></path>
<path stroke-linejoin="round" stroke-linecap="round" stroke-miterlimit="4" stroke-width="2" d="M1.333 1.333h5.333l3.573 17.853c0.122 0.614 0.456 1.165 0.943 1.558s1.098 0.601 1.723 0.589h12.96c0.626 0.012 1.236-0.197 1.723-0.589s0.821-0.944 0.943-1.558l2.133-11.187h-22.667"></path>
</symbol>
<symbol id="icon-Menu-2" viewBox="0 0 32 32">
<path stroke-linejoin="round" stroke-linecap="round" stroke-miterlimit="4" stroke-width="2" d="M27.453 17.88l-9.56 9.56c-0.248 0.248-0.542 0.445-0.865 0.579s-0.671 0.203-1.021 0.203-0.697-0.069-1.021-0.203c-0.324-0.134-0.618-0.331-0.865-0.579l-11.453-11.44v-13.333h13.333l11.453 11.453c0.497 0.5 0.775 1.175 0.775 1.88s-0.279 1.38-0.775 1.88v0z"></path>
<path stroke-linejoin="round" stroke-linecap="round" stroke-miterlimit="4" stroke-width="2" d="M9.333 9.333h0.013"></path>
</symbol>
<symbol id="icon--" viewBox="0 0 32 32">
<path stroke-linejoin="round" stroke-linecap="round" stroke-miterlimit="4" stroke-width="2" d="M10.667 16h10.667"></path>
</symbol>
<symbol id="icon-left" viewBox="0 0 32 32">
<path stroke-linejoin="round" stroke-linecap="round" stroke-miterlimit="4" stroke-width="2.6667" d="M25.333 16h-18.667"></path>
<path stroke-linejoin="round" stroke-linecap="round" stroke-miterlimit="4" stroke-width="2.6667" d="M16 25.333l-9.333-9.333 9.333-9.333"></path>
</symbol>
<symbol id="icon-untitled" viewBox="0 0 32 32">
<path stroke-linejoin="round" stroke-linecap="round" stroke-miterlimit="4" stroke-width="2" d="M16 10.667v10.667"></path>
<path stroke-linejoin="round" stroke-linecap="round" stroke-miterlimit="4" stroke-width="2" d="M10.667 16h10.667"></path>
</symbol>
<symbol id="icon-menu_burger" viewBox="0 0 32 32">
<path stroke-linejoin="round" stroke-linecap="round" stroke-miterlimit="4" stroke-width="2.4" d="M4 16h24M4 8h12M20 24h12"></path>
</symbol>
<symbol id="icon-search" viewBox="0 0 32 32">
<path d="M31.008 27.231l-7.58-6.447c-0.784-0.705-1.622-1.029-2.299-0.998 1.789-2.096 2.87-4.815 2.87-7.787 0-6.627-5.373-12-12-12s-12 5.373-12 12 5.373 12 12 12c2.972 0 5.691-1.081 7.787-2.87-0.031 0.677 0.293 1.515 0.998 2.299l6.447 7.58c1.104 1.226 2.907 1.33 4.007 0.23s0.997-2.903-0.23-4.007zM12 20c-4.418 0-8-3.582-8-8s3.582-8 8-8 8 3.582 8 8-3.582 8-8 8z"></path>
</symbol>
<symbol id="icon-heart" viewBox="0 0 32 32">
<path d="M23.6 2c-3.363 0-6.258 2.736-7.599 5.594-1.342-2.858-4.237-5.594-7.601-5.594-4.637 0-8.4 3.764-8.4 8.401 0 9.433 9.516 11.906 16.001 21.232 6.13-9.268 15.999-12.1 15.999-21.232 0-4.637-3.763-8.401-8.4-8.401z"></path>
</symbol>
</defs>
</svg>
